HIERARCHY
ROOT Hips
{
	OFFSET 0.053599 88.859886 3.107447
	CHANNELS 6 Xposition Yposition Zposition Zrotation Yrotation Xrotation 
	JOINT Spine
	{
		OFFSET -0.000000 8.814246 -2.080107
		CHANNELS 3 Zrotation Yrotation Xrotation
		JOINT Spine1
		{
			OFFSET 0.000000 8.844141 0.000000
			CHANNELS 3 Zrotation Yrotation Xrotation
			JOINT Spine2
			{
				OFFSET -0.000000 11.682268 0.000000
				CHANNELS 3 Zrotation Yrotation Xrotation
				JOINT Spine3
				{
					OFFSET 0.000000 11.746700 0.000000
					CHANNELS 3 Zrotation Yrotation Xrotation
					JOINT Neck
					{
						OFFSET -0.000000 17.658264 -0.000000
						CHANNELS 3 Zrotation Yrotation Xrotation
						JOINT Neck1
						{
							OFFSET -0.000000 5.101515 -0.000000
							CHANNELS 3 Zrotation Yrotation Xrotation
							JOINT Head
							{
								OFFSET 0.000000 5.101515 0.000000
								CHANNELS 3 Zrotation Yrotation Xrotation
								JOINT HeadEnd
								{
									OFFSET 0.000000 11.655085 0.000000
									CHANNELS 3 Zrotation Yrotation Xrotation
									End Site
									{
										OFFSET 0.000000 0.000000 0.000000
									}
								}
							}
						}
					}
					JOINT RightShoulder
					{
						OFFSET -2.625389 11.175210 0.000000
						CHANNELS 3 Zrotation Yrotation Xrotation
						JOINT RightArm
						{
							OFFSET -0.000000 10.434715 -0.000000
							CHANNELS 3 Zrotation Yrotation Xrotation
							JOINT RightForeArm
							{
								OFFSET -0.000000 29.628420 0.000000
								CHANNELS 3 Zrotation Yrotation Xrotation
								JOINT RightHand
								{
									OFFSET -0.000000 22.857611 0.000000
									CHANNELS 3 Zrotation Yrotation Xrotation
									JOINT RightHandThumb1
									{
										OFFSET -2.867323 3.959563 2.944291
										CHANNELS 3 Zrotation Yrotation Xrotation
										JOINT RightHandThumb2
										{
											OFFSET 0.000000 3.350399 0.000000
											CHANNELS 3 Zrotation Yrotation Xrotation
											JOINT RightHandThumb3
											{
												OFFSET 0.000000 3.756509 -0.000000
												CHANNELS 3 Zrotation Yrotation Xrotation
												JOINT RightHandThumb4
												{
													OFFSET 0.000000 3.147345 0.000000
													CHANNELS 3 Zrotation Yrotation Xrotation
													End Site
													{
														OFFSET 0.000000 0.000000 0.000000
													}
												}
											}
										}
									}
									JOINT RightHandIndex1
									{
										OFFSET -0.086752 10.030893 2.345280
										CHANNELS 3 Zrotation Yrotation Xrotation
										JOINT RightHandIndex2
										{
											OFFSET -0.000000 4.061090 0.000000
											CHANNELS 3 Zrotation Yrotation Xrotation
											JOINT RightHandIndex3
											{
												OFFSET -0.000000 3.248873 0.000000
												CHANNELS 3 Zrotation Yrotation Xrotation
												JOINT RightHandIndex4
												{
													OFFSET 0.000000 2.639709 -0.000000
													CHANNELS 3 Zrotation Yrotation Xrotation
													End Site
													{
														OFFSET 0.000000 0.000000 0.000000
													}
												}
											}
										}
									}
									JOINT RightHandMiddle1
									{
										OFFSET 0.104102 9.502952 0.006768
										CHANNELS 3 Zrotation Yrotation Xrotation
										JOINT RightHandMiddle2
										{
											OFFSET 0.000000 4.568727 0.000000
											CHANNELS 3 Zrotation Yrotation Xrotation
											JOINT RightHandMiddle3
											{
												OFFSET 0.000000 3.654981 -0.000000
												CHANNELS 3 Zrotation Yrotation Xrotation
												JOINT RightHandMiddle4
												{
													OFFSET -0.000000 2.741236 -0.000000
													CHANNELS 3 Zrotation Yrotation Xrotation
													End Site
													{
														OFFSET 0.000000 0.000000 0.000000
													}
												}
											}
										}
									}
									JOINT RightHandRing1
									{
										OFFSET 0.086752 8.921708 -2.267442
										CHANNELS 3 Zrotation Yrotation Xrotation
										JOINT RightHandRing2
										{
											OFFSET -0.000000 4.061090 0.000000
											CHANNELS 3 Zrotation Yrotation Xrotation
											JOINT RightHandRing3
											{
												OFFSET 0.000000 3.654981 -0.000000
												CHANNELS 3 Zrotation Yrotation Xrotation
												JOINT RightHandRing4
												{
													OFFSET 0.000000 2.741236 -0.000000
													CHANNELS 3 Zrotation Yrotation Xrotation
													End Site
													{
														OFFSET 0.000000 0.000000 0.000000
													}
												}
											}
										}
									}
									JOINT RightHandPinky1
									{
										OFFSET -0.173504 7.976997 -4.467199
										CHANNELS 3 Zrotation Yrotation Xrotation
										JOINT RightHandPinky2
										{
											OFFSET 0.000000 3.350399 -0.000000
											CHANNELS 3 Zrotation Yrotation Xrotation
											JOINT RightHandPinky3
											{
												OFFSET -0.000000 2.842763 0.000000
												CHANNELS 3 Zrotation Yrotation Xrotation
												JOINT RightHandPinky4
												{
													OFFSET -0.000000 2.639709 0.000000
													CHANNELS 3 Zrotation Yrotation Xrotation
													End Site
													{
														OFFSET 0.000000 0.000000 0.000000
													}
												}
											}
										}
									}
									JOINT RightForeArmEnd
									{
										OFFSET 0.000000 0.000000 0.000000
										CHANNELS 3 Zrotation Yrotation Xrotation
										End Site
										{
											OFFSET 0.000000 0.000000 0.000000
										}
									}
								}
								JOINT RightArmEnd
								{
									OFFSET 0.000000 0.000000 0.000000
									CHANNELS 3 Zrotation Yrotation Xrotation
									End Site
									{
										OFFSET 0.000000 0.000000 0.000000
									}
								}
							}
						}
					}
					JOINT LeftShoulder
					{
						OFFSET 2.625389 11.175210 0.000000
						CHANNELS 3 Zrotation Yrotation Xrotation
						JOINT LeftArm
						{
							OFFSET 0.000000 10.813635 -0.000000
							CHANNELS 3 Zrotation Yrotation Xrotation
							JOINT LeftForeArm
							{
								OFFSET 0.000000 28.724781 0.000000
								CHANNELS 3 Zrotation Yrotation Xrotation
								JOINT LeftHand
								{
									OFFSET 0.644384 25.716167 -0.328871
									CHANNELS 3 Zrotation Yrotation Xrotation
									JOINT LeftHandThumb1
									{
										OFFSET 2.867323 3.959563 2.944291
										CHANNELS 3 Zrotation Yrotation Xrotation
										JOINT LeftHandThumb2
										{
											OFFSET 0.000000 3.350399 0.000000
											CHANNELS 3 Zrotation Yrotation Xrotation
											JOINT LeftHandThumb3
											{
												OFFSET -0.000000 3.756509 0.000000
												CHANNELS 3 Zrotation Yrotation Xrotation
												JOINT LeftHandThumb4
												{
													OFFSET -0.000000 3.100000 0.000000
													CHANNELS 3 Zrotation Yrotation Xrotation
													End Site
													{
														OFFSET 0.000000 0.000000 0.000000
													}
												}
											}
										}
									}
									JOINT LeftHandIndex1
									{
										OFFSET 0.086752 10.030893 2.345280
										CHANNELS 3 Zrotation Yrotation Xrotation
										JOINT LeftHandIndex2
										{
											OFFSET -0.000000 4.061090 -0.000000
											CHANNELS 3 Zrotation Yrotation Xrotation
											JOINT LeftHandIndex3
											{
												OFFSET 0.000000 3.248873 -0.000000
												CHANNELS 3 Zrotation Yrotation Xrotation
												JOINT LeftHandIndex4
												{
													OFFSET 0.000000 2.639709 -0.000000
													CHANNELS 3 Zrotation Yrotation Xrotation
													End Site
													{
														OFFSET 0.000000 0.000000 0.000000
													}
												}
											}
										}
									}
									JOINT LeftHandMiddle1
									{
										OFFSET -0.104102 9.502952 0.006768
										CHANNELS 3 Zrotation Yrotation Xrotation
										JOINT LeftHandMiddle2
										{
											OFFSET -0.000000 4.568727 -0.000000
											CHANNELS 3 Zrotation Yrotation Xrotation
											JOINT LeftHandMiddle3
											{
												OFFSET 0.000000 3.654981 0.000000
												CHANNELS 3 Zrotation Yrotation Xrotation
												JOINT LeftHandMiddle4
												{
													OFFSET 0.000000 2.741236 -0.000000
													CHANNELS 3 Zrotation Yrotation Xrotation
													End Site
													{
														OFFSET 0.000000 0.000000 0.000000
													}
												}
											}
										}
									}
									JOINT LeftHandRing1
									{
										OFFSET -0.086752 8.921708 -2.267442
										CHANNELS 3 Zrotation Yrotation Xrotation
										JOINT LeftHandRing2
										{
											OFFSET 0.000000 4.061090 0.000000
											CHANNELS 3 Zrotation Yrotation Xrotation
											JOINT LeftHandRing3
											{
												OFFSET 0.000000 3.654981 0.000000
												CHANNELS 3 Zrotation Yrotation Xrotation
												JOINT LeftHandRing4
												{
													OFFSET 0.000000 2.741236 0.000000
													CHANNELS 3 Zrotation Yrotation Xrotation
													End Site
													{
														OFFSET 0.000000 0.000000 0.000000
													}
												}
											}
										}
									}
									JOINT LeftHandPinky1
									{
										OFFSET 0.173504 7.976997 -4.467199
										CHANNELS 3 Zrotation Yrotation Xrotation
										JOINT LeftHandPinky2
										{
											OFFSET -0.000000 3.350399 -0.000000
											CHANNELS 3 Zrotation Yrotation Xrotation
											JOINT LeftHandPinky3
											{
												OFFSET 0.000000 2.842763 0.000000
												CHANNELS 3 Zrotation Yrotation Xrotation
												JOINT LeftHandPinky4
												{
													OFFSET -0.000000 2.639709 -0.000000
													CHANNELS 3 Zrotation Yrotation Xrotation
													End Site
													{
														OFFSET 0.000000 0.000000 0.000000
													}
												}
											}
										}
									}
									JOINT LeftForeArmEnd
									{
										OFFSET 0.000000 0.000000 0.000000
										CHANNELS 3 Zrotation Yrotation Xrotation
										End Site
										{
											OFFSET 0.000000 0.000000 0.000000
										}
									}
								}
								JOINT LeftArmEnd
								{
									OFFSET 0.000000 0.000000 0.000000
									CHANNELS 3 Zrotation Yrotation Xrotation
									End Site
									{
										OFFSET 0.000000 0.000000 0.000000
									}
								}
							}
						}
					}
				}
			}
		}
	}
	JOINT RightUpLeg
	{
		OFFSET -11.289943 0.000000 0.000000
		CHANNELS 3 Zrotation Yrotation Xrotation
		JOINT RightLeg
		{
			OFFSET 0.000000 -38.200325 0.000000
			CHANNELS 3 Zrotation Yrotation Xrotation
			JOINT RightFoot
			{
				OFFSET -0.000000 -39.900856 -0.000000
				CHANNELS 3 Zrotation Yrotation Xrotation
				JOINT RightToeBase
				{
					OFFSET 0.000000 0.000000 15.261641
					CHANNELS 3 Zrotation Yrotation Xrotation
					JOINT RightToeBaseEnd
					{
						OFFSET 0.000000 0.000000 7.370709
						CHANNELS 3 Zrotation Yrotation Xrotation
						End Site
						{
							OFFSET 0.000000 0.000000 0.000000
						}
					}
				}
				JOINT RightLegEnd
				{
					OFFSET 0.000000 0.000000 0.000000
					CHANNELS 3 Zrotation Yrotation Xrotation
					End Site
					{
						OFFSET 0.000000 0.000000 0.000000
					}
				}
			}
			JOINT RightUpLegEnd
			{
				OFFSET 0.000000 0.000000 0.000000
				CHANNELS 3 Zrotation Yrotation Xrotation
				End Site
				{
					OFFSET 0.000000 0.000000 0.000000
				}
			}
		}
	}
	JOINT LeftUpLeg
	{
		OFFSET 11.315661 -0.000000 0.000000
		CHANNELS 3 Zrotation Yrotation Xrotation
		JOINT LeftLeg
		{
			OFFSET -0.000000 -38.200325 -0.000000
			CHANNELS 3 Zrotation Yrotation Xrotation
			JOINT LeftFoot
			{
				OFFSET 0.000000 -39.900856 -0.000000
				CHANNELS 3 Zrotation Yrotation Xrotation
				JOINT LeftToeBase
				{
					OFFSET -0.000000 -0.000000 15.261641
					CHANNELS 3 Zrotation Yrotation Xrotation
					JOINT LeftToeBaseEnd
					{
						OFFSET 0.000000 -0.000000 7.539996
						CHANNELS 3 Zrotation Yrotation Xrotation
						End Site
						{
							OFFSET 0.000000 0.000000 0.000000
						}
					}
				}
				JOINT LeftLegEnd
				{
					OFFSET 0.000000 0.000000 0.000000
					CHANNELS 3 Zrotation Yrotation Xrotation
					End Site
					{
						OFFSET 0.000000 0.000000 0.000000
					}
				}
			}
			JOINT LeftUpLegEnd
			{
				OFFSET 0.000000 0.000000 0.000000
				CHANNELS 3 Zrotation Yrotation Xrotation
				End Site
				{
					OFFSET 0.000000 0.000000 0.000000
				}
			}
		}
	}
}
MOTION
Frames: 5
Frame Time: 0.016667
0.053599 88.859886 3.107447 0.490481 0.055862 -6.497332 0.023754 -0.000539 5.886370 -1.012250 0.067046 0.861970 0.478071 -2.416792 3.829567 0.155030 -0.780500 1.929224 2.330515 0.848112 5.016849 0.371683 2.117863 -3.221864 -0.714533 -0.852149 -18.222401 0.000000 0.000000 0.000000 92.418694 -0.394880 9.707912 65.456573 -33.431271 5.091406 -0.130291 12.440493 22.353239 6.882370 13.743960 -6.458578 19.861429 30.097643 62.040974 -8.462701 -12.164348 -20.450144 -6.325801 -8.139122 -14.332924 0.000000 0.000000 0.000000 12.621688 -10.712396 0.231899 8.905269 0.376633 1.323778 8.902945 -0.111869 1.243825 0.000000 0.000000 0.000000 11.194713 -5.446730 -1.239449 7.889823 0.455857 0.481039 7.889222 -0.037052 0.412494 0.000000 0.000000 0.000000 10.912717 2.564455 -1.535874 7.825817 -0.947299 -0.611652 7.824722 0.070320 -0.477096 0.000000 0.000000 0.000000 9.631022 11.185607 -2.805182 7.161172 -1.900893 -1.652070 7.157181 0.085565 -1.400512 0.000000 0.000000 0.000000 0.000000 0.000000 0.000000 0.000000 0.000000 0.000000 -90.370071 0.051974 5.208683 -71.842018 19.306828 -7.574249 -0.664994 -8.642401 40.885647 -0.139946 -25.486511 -15.477552 -20.250540 -29.996990 61.691063 8.807010 12.918287 -21.553112 6.618044 8.635277 -15.110494 0.000000 0.000000 0.000000 -16.168392 -5.636370 -1.918335 -11.569428 0.324957 -1.715407 -11.569072 -0.164917 -1.615128 0.000000 0.000000 0.000000 -15.643335 -0.758781 -1.694552 -11.169063 0.440303 -0.678956 -11.168735 -0.058746 -0.582722 0.000000 0.000000 0.000000 -18.003109 7.607869 -1.025503 -12.703986 -0.874371 0.992852 -12.702737 0.099213 0.772902 0.000000 0.000000 0.000000 -18.852142 16.262062 -0.245862 -13.102126 -1.657223 2.980032 -13.096694 0.281077 2.526406 0.000000 0.000000 0.000000 0.000000 0.000000 0.000000 0.000000 0.000000 0.000000 -1.045058 -10.518975 11.869204 -0.078405 -0.635030 3.758801 -2.197730 -7.901679 18.681496 -0.890004 0.828132 -18.870453 0.000000 0.000000 0.000000 0.000000 0.000000 0.000000 0.000000 0.000000 0.000000 -1.784023 -6.543907 7.474547 0.053202 0.398207 7.545935 3.843466 -1.785134 17.966772 0.194973 -0.390531 -20.817129 0.000000 0.000000 0.000000 0.000000 0.000000 0.000000 0.000000 0.000000 0.000000 
0.110974 88.914574 2.914665 -0.279915 -0.304446 -7.332391 1.300836 -0.185903 6.647865 -0.969189 0.120613 2.676029 0.756151 -1.617317 1.561725 -0.892633 -0.171020 3.100345 1.311728 2.292431 3.113003 0.356063 2.967530 -3.806492 -1.053671 -0.592444 -18.460613 0.000000 0.000000 0.000000 92.976318 -0.446926 9.594220 64.968590 -32.143639 4.015602 -0.108258 13.118506 23.209764 6.837728 13.084989 -6.876026 19.887735 30.088484 62.062019 -8.449994 -12.104311 -20.474741 -6.306458 -8.112460 -14.305826 0.000000 0.000000 0.000000 11.993049 -10.741282 -0.308506 8.952703 0.334282 1.321421 8.741781 -0.106414 1.257258 0.000000 0.000000 0.000000 10.837466 -5.348094 -1.098379 7.614100 0.422702 0.515035 7.982765 -0.052502 0.440954 0.000000 0.000000 0.000000 10.292828 2.578518 -0.832191 7.422100 -0.889462 -0.849011 7.463859 0.067007 -0.623907 0.000000 0.000000 0.000000 9.589582 11.048617 -1.773981 7.121136 -1.649797 -2.421036 6.706184 0.277237 -2.045469 0.000000 0.000000 0.000000 0.000000 0.000000 0.000000 0.000000 0.000000 0.000000 -89.913155 0.126299 6.013515 -71.671280 19.575714 -6.574967 -1.222190 -9.092279 40.434235 1.911409 -23.247026 -16.047161 -20.254049 -29.962574 61.600304 8.899513 12.961390 -21.706514 6.661443 8.675033 -15.171844 0.000000 0.000000 0.000000 -17.184944 -5.496387 -0.119345 -10.984625 0.295113 -1.384605 -11.105410 -0.167882 -1.277336 0.000000 0.000000 0.000000 -16.527906 -0.509711 -0.908051 -10.872955 0.408933 -0.586583 -10.793521 -0.066251 -0.470712 0.000000 0.000000 0.000000 -18.694723 7.531132 -0.745954 -12.382117 -0.868986 0.845083 -12.358916 0.083733 0.656321 0.000000 0.000000 0.000000 -19.967957 15.939337 -1.161973 -12.950522 -1.549072 2.638764 -12.805522 0.343455 2.245188 0.000000 0.000000 0.000000 0.000000 0.000000 0.000000 0.000000 0.000000 0.000000 0.145897 -9.163994 11.035966 -0.048734 -0.640645 6.171949 -2.890489 -9.065062 17.701225 -0.796045 0.757954 -19.031082 0.000000 0.000000 0.000000 0.000000 0.000000 0.000000 0.000000 0.000000 0.000000 -1.538965 -6.383884 7.189222 0.057343 0.364567 8.534601 3.726183 -0.573106 16.972370 0.387221 -0.472962 -20.508070 0.000000 0.000000 0.000000 0.000000 0.000000 0.000000 0.000000 0.000000 0.000000 
0.115770 88.899582 2.904177 -0.301870 -0.370322 -7.408645 1.298605 -0.175112 6.689233 -0.907495 0.107071 2.650454 0.751470 -1.584205 1.659499 -0.871322 -0.144351 3.149867 1.254378 2.216674 3.044155 0.347871 2.898653 -3.799705 -1.070406 -0.626650 -18.429197 0.000000 0.000000 0.000000 92.867371 -0.446690 9.525075 64.944748 -32.340446 4.065321 -0.057636 13.189873 23.272228 6.658719 12.661561 -6.854024 19.873283 30.091154 62.065899 -8.447116 -12.089242 -20.453394 -6.304858 -8.099330 -14.291751 0.000000 0.000000 0.000000 11.972254 -10.737633 -0.352756 8.984711 0.339671 1.297359 8.787695 -0.099347 1.233539 0.000000 0.000000 0.000000 10.850771 -5.339723 -1.094647 7.659301 0.423663 0.505696 8.028401 -0.050645 0.433759 0.000000 0.000000 0.000000 10.316184 2.568463 -0.787488 7.498403 -0.890839 -0.838221 7.545809 0.063666 -0.613236 0.000000 0.000000 0.000000 9.560800 11.033831 -1.654460 7.127768 -1.655115 -2.403822 6.733955 0.270042 -2.023454 0.000000 0.000000 0.000000 0.000000 0.000000 0.000000 0.000000 0.000000 0.000000 -89.868362 0.127185 6.045104 -71.834518 19.696545 -6.582213 -1.216084 -9.146057 40.503315 2.055593 -22.950600 -16.036209 -20.243149 -29.969379 61.614613 8.878015 12.934267 -21.667946 6.646780 8.654781 -15.140059 0.000000 0.000000 0.000000 -17.084908 -5.539327 -0.200024 -11.052966 0.297496 -1.362594 -11.152823 -0.163334 -1.260528 0.000000 0.000000 0.000000 -16.418074 -0.537708 -0.966156 -10.947331 0.409566 -0.582180 -10.863881 -0.066074 -0.467369 0.000000 0.000000 0.000000 -18.661097 7.522558 -0.813645 -12.466256 -0.869312 0.843138 -12.428883 0.082978 0.653874 0.000000 0.000000 0.000000 -19.978476 15.934492 -1.237150 -12.989369 -1.552652 2.616576 -12.822269 0.339661 2.240036 0.000000 0.000000 0.000000 0.000000 0.000000 0.000000 0.000000 0.000000 0.000000 0.153583 -9.096462 11.141328 -0.048976 -0.643010 6.101498 -2.841754 -9.090609 17.736708 -0.799467 0.758875 -19.034403 0.000000 0.000000 0.000000 0.000000 0.000000 0.000000 0.000000 0.000000 0.000000 -1.511750 -6.337358 7.178508 0.055920 0.354205 8.626506 3.724222 -0.562631 16.975801 0.369156 -0.477536 -20.538969 0.000000 0.000000 0.000000 0.000000 0.000000 0.000000 0.000000 0.000000 0.000000 
0.121210 88.888840 2.909035 -0.318834 -0.432917 -7.505894 1.304590 -0.168317 6.699831 -0.890379 0.106958 2.636343 0.761684 -1.564973 1.742520 -0.859402 -0.113626 3.217284 1.203435 2.175582 3.013622 0.360038 2.862693 -3.772259 -1.072306 -0.641626 -18.421072 0.000000 0.000000 0.000000 92.778992 -0.449860 9.468775 65.020058 -32.209198 3.957044 -0.042954 13.268369 23.450598 6.673791 12.271404 -6.783282 19.882917 30.090828 62.054581 -8.454219 -12.119300 -20.491392 -6.312496 -8.114683 -14.318174 0.000000 0.000000 0.000000 12.051401 -10.765121 -0.366421 9.096611 0.346237 1.271160 8.907427 -0.092504 1.208518 0.000000 0.000000 0.000000 10.938590 -5.351835 -1.076166 7.768541 0.426298 0.495535 8.135736 -0.048026 0.425146 0.000000 0.000000 0.000000 10.378048 2.566740 -0.715648 7.603996 -0.893727 -0.828754 7.656147 0.060919 -0.604331 0.000000 0.000000 0.000000 9.554620 11.048161 -1.506998 7.169028 -1.660215 -2.395239 6.791021 0.266255 -2.016329 0.000000 0.000000 0.000000 0.000000 0.000000 0.000000 0.000000 0.000000 0.000000 -89.844238 0.132003 6.054044 -71.968842 19.687775 -6.583151 -1.181090 -9.201494 40.530678 2.035718 -22.677225 -15.856415 -20.250370 -29.970844 61.613178 8.874723 12.929779 -21.680826 6.646021 8.656646 -15.141587 0.000000 0.000000 0.000000 -17.091671 -5.565219 -0.202078 -11.090978 0.301048 -1.340044 -11.171190 -0.158972 -1.242268 0.000000 0.000000 0.000000 -16.401884 -0.548928 -0.961721 -10.993170 0.410852 -0.574911 -10.913680 -0.065305 -0.460926 0.000000 0.000000 0.000000 -18.715813 7.524998 -0.786850 -12.522591 -0.870690 0.841749 -12.486125 0.081762 0.650889 0.000000 0.000000 0.000000 -20.089474 15.932824 -1.223786 -13.036367 -1.554689 2.612816 -12.846678 0.340702 2.245127 0.000000 0.000000 0.000000 0.000000 0.000000 0.000000 0.000000 0.000000 0.000000 0.145945 -9.029089 11.255600 -0.049175 -0.641436 6.101615 -2.797394 -9.106002 17.759766 -0.800499 0.760466 -19.040522 0.000000 0.000000 0.000000 0.000000 0.000000 0.000000 0.000000 0.000000 0.000000 -1.496389 -6.307523 7.179083 0.055178 0.350599 8.747709 3.729999 -0.552943 16.959093 0.359847 -0.482228 -20.551918 0.000000 0.000000 0.000000 0.000000 0.000000 0.000000 0.000000 0.000000 0.000000 
0.127415 88.880432 2.918423 -0.339862 -0.487360 -7.607943 1.317990 -0.162442 6.704547 -0.882992 0.109094 2.622207 0.765948 -1.535391 1.827546 -0.851137 -0.086675 3.276612 1.129264 2.176664 3.047072 0.379035 2.852569 -3.722613 -1.064974 -0.649681 -18.449663 0.000000 0.000000 0.000000 92.730011 -0.444976 9.443578 65.176659 -31.970413 3.765358 -0.039043 13.410725 23.626579 6.693873 11.970488 -6.655250 19.899652 30.087162 62.034241 -8.469952 -12.164853 -20.550165 -6.326934 -8.141595 -14.355816 0.000000 0.000000 0.000000 12.207984 -10.801115 -0.350508 9.212143 0.357285 1.234863 9.029738 -0.080946 1.176426 0.000000 0.000000 0.000000 11.102409 -5.378277 -1.033603 7.880851 0.431605 0.481169 8.246767 -0.043454 0.413146 0.000000 0.000000 0.000000 10.524360 2.547154 -0.616002 7.712731 -0.900513 -0.811057 7.767879 0.055396 -0.589650 0.000000 0.000000 0.000000 9.627650 11.046025 -1.345520 7.228829 -1.676972 -2.357074 6.861635 0.252870 -1.986528 0.000000 0.000000 0.000000 0.000000 0.000000 0.000000 0.000000 0.000000 0.000000 -89.839355 0.127862 6.061892 -72.019661 19.682276 -6.546202 -1.149804 -9.251853 40.605225 1.888029 -22.419994 -15.676982 -20.246384 -29.970659 61.614326 8.878337 12.907734 -21.676615 6.644416 8.645282 -15.130963 0.000000 0.000000 0.000000 -17.104858 -5.573357 -0.160713 -11.073098 0.313196 -1.294353 -11.138856 -0.145894 -1.202795 0.000000 0.000000 0.000000 -16.394714 -0.551626 -0.916746 -10.981928 0.415979 -0.557235 -10.908865 -0.061060 -0.445846 0.000000 0.000000 0.000000 -18.760771 7.518618 -0.715983 -12.530176 -0.877700 0.825048 -12.490383 0.076082 0.637024 0.000000 0.000000 0.000000 -20.189016 15.913124 -1.178951 -13.042460 -1.573228 2.563804 -12.833282 0.326238 2.211803 0.000000 0.000000 0.000000 0.000000 0.000000 0.000000 0.000000 0.000000 0.000000 0.135814 -8.963542 11.366394 -0.049333 -0.638999 6.125895 -2.762552 -9.086989 17.776363 -0.797929 0.760184 -19.043781 0.000000 0.000000 0.000000 0.000000 0.000000 0.000000 0.000000 0.000000 0.000000 -1.481021 -6.299387 7.196736 0.054750 0.346681 8.858003 3.730036 -0.525154 16.950291 0.355996 -0.484859 -20.561775 0.000000 0.000000 0.000000 0.000000 0.000000 0.000000 0.000000 0.000000 0.000000 
